<svg aria-hidden="true" style="width:0;height:0;position:absolute;overflow:hidden" xmlns="http://www.w3.org/2000/svg"><defs><symbol id="icon-burger" viewBox="0 0 32 32"><path stroke-linejoin="round" stroke-linecap="round" stroke-width="2.286" d="M22.667 13.333H4M28 8H4M28 18.667H4M22.667 24H4"/></symbol><symbol id="icon-bookshelf" viewBox="0 0 178 32"><path d="M22.176 8.533c0-4.731-3.497-7.406-9.545-7.406H0v29.417h13.33c6.089 0 9.998-2.921 9.998-8.599 0-4.402-2.633-6.665-5.719-7.2v-.082c2.427-.823 4.567-2.51 4.567-6.13zm-17.28 4.772V5.282h7.858c2.921 0 4.526 1.44 4.526 4.032s-1.317 3.991-4.814 3.991h-7.57zm0 3.662h8.599c3.086 0 4.937 1.687 4.937 4.69 0 2.757-1.275 4.731-5.472 4.731H4.896v-9.422zM35.89 31.161c-6.583 0-10.574-4.567-10.574-11.109S29.307 8.943 35.89 8.943s10.574 4.567 10.574 11.109-3.991 11.109-10.574 11.109zm0-3.538c4.114 0 6.254-3.25 6.254-7.57 0-4.361-2.139-7.57-6.254-7.57s-6.254 3.209-6.254 7.57c0 4.32 2.139 7.57 6.254 7.57zM58.912 31.161c-6.583 0-10.574-4.567-10.574-11.109S52.329 8.943 58.912 8.943s10.574 4.567 10.574 11.109-3.991 11.109-10.574 11.109zm0-3.538c4.114 0 6.254-3.25 6.254-7.57 0-4.361-2.139-7.57-6.254-7.57s-6.254 3.209-6.254 7.57c0 4.32 2.139 7.57 6.254 7.57zM72.472 1.127v29.417h4.32v-7.611l2.921-2.757 6.624 10.368h5.184l-8.846-13.207 7.982-7.817H85.35l-8.558 8.434V1.127h-4.32zM101.935 17.831c-3.045-.699-5.39-.864-5.39-3.003 0-1.481 1.399-2.469 3.991-2.469 3.374 0 4.197 1.687 4.485 3.333h4.197c-.288-3.662-3.003-6.747-8.722-6.747-5.266 0-8.311 2.757-8.311 6.213 0 4.773 4.526 5.431 7.858 6.213 3.086.741 5.595.946 5.595 3.579 0 1.317-1.275 2.798-4.279 2.798-4.443 0-5.431-1.934-5.637-4.197h-4.197c.206 4.443 3.127 7.611 9.915 7.611 5.102 0 8.558-2.51 8.558-6.542 0-5.019-4.197-5.883-8.064-6.789zM124.123 8.944c-3.538 0-5.719 1.646-6.83 3.291h-.082V1.126h-4.32v29.417h4.32V17.748c0-3.127 2.263-5.143 5.431-5.143 3.003 0 4.197 1.81 4.197 4.649v13.289h4.361V16.02c0-4.814-3.086-7.077-7.077-7.077zM144.448 27.623c-3.826 0-6.089-2.921-6.089-6.459h16.128c0-7.488-3.333-12.219-10.121-12.219-6.336 0-10.327 4.279-10.327 11.109 0 6.583 3.991 11.109 10.533 11.109 5.39 0 8.517-3.045 9.586-7.035h-4.32c-.37 1.275-1.81 3.497-5.39 3.497zm-.082-15.264c3.497 0 5.801 2.345 5.801 5.595h-11.808c0-3.25 2.51-5.595 6.007-5.595zM157.531 1.127v29.417h4.361V1.127h-4.361zM176.003 4.665V1.127a15.12 15.12 0 0 0-2.88-.288c-3.456 0-5.349 1.563-5.349 6.007V9.52h-3.003v3.538h3.003v17.486h4.361V13.058h3.867V9.52h-3.867V7.216c0-2.386 1.07-2.674 3.867-2.551z"/></symbol><symbol id="icon-dump" viewBox="0 0 32 32"><path fill="#4f2ee8" style="fill:var(--color1,#4f2ee8)" d="M32 16c0 8.837-7.163 16-16 16S0 24.837 0 16 7.163 0 16 0s16 7.163 16 16z"/><path fill="none" stroke="#fff" style="stroke:var(--color2,#fff)" stroke-linejoin="round" stroke-linecap="round" stroke-width="1.684" d="M13.684 9.053h4.632m-9.263 2.315h13.895m-1.544 0-.541 8.12c-.081 1.218-.122 1.827-.385 2.289a2.322 2.322 0 0 1-1.002.938c-.478.232-1.089.232-2.31.232h-2.33c-1.221 0-1.832 0-2.31-.232a2.31 2.31 0 0 1-1.002-.938c-.263-.462-.304-1.071-.385-2.289l-.541-8.12m3.858 3.474v3.86m3.088-3.86v3.86"/></symbol><symbol id="icon-lock" viewBox="0 0 32 32"><path stroke-linejoin="round" stroke-linecap="round" stroke-width="2.286" d="M22.667 14.667v-4a6.667 6.667 0 0 0-13.334 0v4M10.4 28h11.2c2.24 0 3.36 0 4.216-.436a3.991 3.991 0 0 0 1.748-1.748C28 24.96 28 23.84 28 21.6v-.533c0-2.24 0-3.36-.436-4.216a3.991 3.991 0 0 0-1.748-1.748c-.856-.436-1.976-.436-4.216-.436H10.4c-2.24 0-3.36 0-4.216.436a3.996 3.996 0 0 0-1.748 1.748C4 17.707 4 18.827 4 21.067v.533c0 2.24 0 3.36.436 4.216a3.991 3.991 0 0 0 1.748 1.748C7.04 28 8.16 28 10.4 28z"/></symbol><symbol id="icon-logo" viewBox="0 0 32 32"><path fill="#f6f6f6" style="fill:var(--color3,#f6f6f6)" d="m0 0 16.343 16.171L32 32V0H0z"/><path fill="#f6f6f6" style="fill:var(--color3,#f6f6f6)" d="M4.457 4.229 16.4 16.058l11.257 11.486h-23.2V4.23z"/><path fill="#4f2ee8" style="fill:var(--color1,#4f2ee8)" d="M27.733 27.618 15.79 15.789 4.533 4.303h23.2v23.314z"/><path fill="#4f2ee8" style="fill:var(--color1,#4f2ee8)" d="m9.257 9.029 13.6 13.6h-13.6v-13.6z"/><path fill="#f6f6f6" style="fill:var(--color3,#f6f6f6)" d="m9.257 9.029 13.6 13.6v-13.6h-13.6z"/></symbol><symbol id="icon-mail" viewBox="0 0 32 32"><path stroke-linejoin="round" stroke-linecap="round" stroke-width="2.286" d="m28.666 24-8.857-8m-7.619 0-8.857 8M2.667 9.333l10.887 7.621c.882.617 1.322.926 1.802 1.045.423.106.866.106 1.29 0 .479-.12.92-.428 1.802-1.045l10.887-7.621M9.067 26.667h13.867c2.24 0 3.36 0 4.216-.436a3.996 3.996 0 0 0 1.748-1.748c.436-.856.436-1.976.436-4.216v-8.533c0-2.24 0-3.36-.436-4.216A3.991 3.991 0 0 0 27.15 5.77c-.856-.436-1.976-.436-4.216-.436H9.067c-2.24 0-3.36 0-4.216.436a3.991 3.991 0 0 0-1.748 1.748c-.436.856-.436 1.976-.436 4.216v8.533c0 2.24 0 3.36.436 4.216a3.996 3.996 0 0 0 1.748 1.748c.856.436 1.976.436 4.216.436z"/></symbol><symbol id="icon-user" viewBox="0 0 32 32"><path fill="#f6f6f6" style="fill:var(--color3,#f6f6f6)" d="M32 16c0 8.837-7.163 16-16 16S0 24.837 0 16 7.163 0 16 0s16 7.163 16 16z"/><path fill="#4f2ee8" style="fill:var(--color1,#4f2ee8)" d="M10.523 22.847a5.477 5.477 0 1 1 10.954 0H10.522zM16 16.685c-2.27 0-4.108-1.838-4.108-4.108S13.73 8.469 16 8.469c2.27 0 4.108 1.838 4.108 4.108S18.27 16.685 16 16.685z"/></symbol><symbol id="icon-x-close" viewBox="0 0 32 32"><path stroke-linejoin="round" stroke-linecap="round" stroke-width="3.429" d="M24 8 8 24M8 8l16 16"/></symbol><symbol id="icon-cart" viewBox="0 0 32 32"><path d="M25.333 9.333h-4V8a5.332 5.332 0 1 0-10.666 0v1.333h-4a1.335 1.335 0 0 0-1.334 1.334v14.667a4.003 4.003 0 0 0 4 4h13.333a4.003 4.003 0 0 0 4-4V10.667a1.335 1.335 0 0 0-1.334-1.334zM13.333 8a2.668 2.668 0 0 1 5.334 0v1.333h-5.333V8zM24 25.333a1.335 1.335 0 0 1-1.334 1.334H9.333a1.335 1.335 0 0 1-1.334-1.334V12h2.667v1.333a1.335 1.335 0 0 0 2.277.943c.25-.251.391-.589.391-.943V12h5.333v1.333a1.333 1.333 0 1 0 2.667 0V12h2.667v13.333z"/></symbol><symbol id="icon-caret-down" viewBox="0 0 28 32"><path fill="#fff" style="fill:var(--color1,#fff)" d="M5.897 12H22.41l-7.423 8.391c-.221.25-.521.39-.834.39s-.613-.14-.834-.39L5.896 12z"/></symbol><symbol id="icon-arrow-narrow-right" viewBox="0 0 32 32"><path fill="none" stroke="#eac645" style="stroke:var(--color1,#eac645)" stroke-linejoin="round" stroke-linecap="round" stroke-width="3.2" d="M5.333 16h21.333m0 0-8-8m8 8-8 8"/></symbol><symbol id="icon-circle" viewBox="0 0 24 24"><path d="M12 2.016q-2.063 0-3.891.773T4.921 4.922 2.788 8.11t-.773 3.891.773 3.891 2.133 3.188 3.188 2.133 3.891.773 3.891-.773 3.188-2.133 2.133-3.188.773-3.891-.773-3.891-2.133-3.188-3.188-2.133T12 2.016z"/></symbol><symbol id="icon-trash" viewBox="0 0 32 32"><path fill="none" stroke="#fff" style="stroke:var(--color1,#fff)" stroke-linejoin="round" stroke-linecap="round" stroke-width="2.667" d="M12 4h8M4 8h24m-2.667 0-.935 14.026c-.14 2.104-.21 3.156-.665 3.954a4.007 4.007 0 0 1-1.731 1.62c-.826.4-1.881.4-3.99.4h-4.025c-2.109 0-3.163 0-3.99-.4a4.001 4.001 0 0 1-1.731-1.62c-.455-.798-.525-1.85-.665-3.954L6.666 8m6.667 6v6.667M18.667 14v6.667"/></symbol><symbol id="icon-amazon" viewBox="0 0 106 32"><path d="M65.759 24.999c-6.154 4.536-15.073 6.956-22.753 6.956-10.768 0-20.462-3.983-27.796-10.607-.576-.521-.06-1.231.631-.825 7.915 4.605 17.701 7.375 27.809 7.375 6.818 0 14.317-1.411 21.213-4.338 1.042-.443 1.913.682.894 1.438z"/><path d="M68.318 22.072c-.784-1.005-5.2-.475-7.182-.24-.604.074-.696-.452-.152-.83 3.517-2.475 9.288-1.761 9.961-.931.673.834-.175 6.619-3.48 9.38-.507.424-.991.198-.765-.364.742-1.853 2.406-6.006 1.618-7.016zM61.274 3.528V1.122c0-.364.277-.608.608-.608h10.773c.346 0 .622.249.622.608v2.06c-.005.346-.295.797-.811 1.512l-5.582 7.97c2.074-.051 4.264.258 6.145 1.318.424.24.539.59.572.936v2.568c0 .35-.387.761-.793.549-3.314-1.738-7.716-1.927-11.381.018-.373.203-.765-.203-.765-.553v-2.438c0-.392.005-1.06.396-1.655l6.467-9.274h-5.628c-.346 0-.622-.244-.622-.604zM21.978 18.541h-3.277a.619.619 0 0 1-.585-.558V1.163c0-.337.281-.604.631-.604h3.056a.618.618 0 0 1 .595.562V3.32h.06c.797-2.125 2.296-3.116 4.315-3.116 2.051 0 3.333.991 4.255 3.116.793-2.125 2.595-3.116 4.527-3.116 1.374 0 2.876.567 3.794 1.839 1.037 1.415.825 3.471.825 5.273l-.005 10.616a.618.618 0 0 1-.632.608h-3.273a.623.623 0 0 1-.59-.608V9.017c0-.71.065-2.48-.092-3.153-.244-1.129-.977-1.447-1.927-1.447-.793 0-1.623.53-1.959 1.378s-.304 2.268-.304 3.222v8.915a.618.618 0 0 1-.631.608h-3.273a.62.62 0 0 1-.59-.608l-.005-8.915c0-1.876.309-4.637-2.019-4.637-2.355 0-2.263 2.692-2.263 4.637v8.915a.618.618 0 0 1-.631.608zM82.552.205c4.863 0 7.495 4.176 7.495 9.486 0 5.13-2.909 9.201-7.495 9.201-4.775 0-7.375-4.176-7.375-9.38 0-5.236 2.632-9.307 7.375-9.307zm.028 3.434c-2.415 0-2.568 3.291-2.568 5.342 0 2.056-.032 6.444 2.54 6.444 2.54 0 2.66-3.54 2.66-5.697 0-1.42-.06-3.116-.489-4.462-.369-1.171-1.102-1.627-2.143-1.627zM96.353 18.541h-3.264a.623.623 0 0 1-.59-.608l-.005-16.825a.62.62 0 0 1 .632-.549h3.038a.626.626 0 0 1 .585.47v2.572h.06c.917-2.3 2.203-3.397 4.467-3.397 1.47 0 2.904.53 3.826 1.982.857 1.346.857 3.609.857 5.236V18.01c-.037.295-.309.53-.632.53h-3.287c-.3-.023-.549-.244-.581-.53V8.874c0-1.839.212-4.531-2.051-4.531-.797 0-1.53.535-1.895 1.346-.461 1.028-.521 2.051-.521 3.185v9.058a.63.63 0 0 1-.641.608zM52.687 10.507v-.71c-2.369 0-4.872.507-4.872 3.3 0 1.415.733 2.374 1.991 2.374.922 0 1.747-.567 2.268-1.489.645-1.134.613-2.199.613-3.476zm3.305 7.988a.683.683 0 0 1-.774.078c-1.088-.903-1.281-1.323-1.881-2.185-1.798 1.835-3.07 2.383-5.402 2.383-2.757 0-4.905-1.701-4.905-5.107 0-2.66 1.443-4.471 3.494-5.356 1.779-.784 4.264-.922 6.163-1.139v-.424c0-.779.06-1.701-.396-2.374-.401-.604-1.166-.853-1.839-.853-1.249 0-2.365.641-2.637 1.968-.055.295-.272.585-.567.599l-3.181-.341c-.267-.06-.562-.277-.489-.687.733-3.854 4.213-5.015 7.329-5.015 1.595 0 3.678.424 4.937 1.632 1.595 1.489 1.443 3.476 1.443 5.638v5.107c0 1.535.636 2.208 1.235 3.038.212.295.258.65-.009.871a138.67 138.67 0 0 0-2.512 2.176l-.009-.009zM9.721 10.507v-.71c-2.369 0-4.872.507-4.872 3.3 0 1.415.733 2.374 1.991 2.374.922 0 1.747-.567 2.268-1.489.645-1.134.613-2.199.613-3.476zm3.305 7.988a.683.683 0 0 1-.774.078c-1.088-.903-1.281-1.323-1.881-2.185-1.798 1.835-3.07 2.383-5.402 2.383-2.756 0-4.905-1.701-4.905-5.107 0-2.66 1.443-4.471 3.494-5.356 1.779-.784 4.264-.922 6.163-1.139v-.424c0-.779.06-1.701-.396-2.374-.401-.604-1.166-.853-1.839-.853-1.249 0-2.365.641-2.637 1.968-.055.295-.272.585-.567.599l-3.181-.341c-.267-.06-.562-.277-.489-.687C1.345 1.203 4.825.042 7.941.042c1.595 0 3.678.424 4.937 1.632 1.595 1.489 1.443 3.476 1.443 5.638v5.107c0 1.535.636 2.208 1.235 3.038.212.295.258.65-.009.871a138.67 138.67 0 0 0-2.512 2.176l-.009-.009z"/></symbol><symbol id="icon-bookshop1" viewBox="0 0 32 32"><path d="M0 .571h32v30.857H0V.571z"/></symbol><symbol id="icon-bookshop2" viewBox="0 0 32 32"><path d="M0 0h32v32H0V0z"/></symbol><symbol id="icon-bestseller" viewBox="0 0 35 32"><path fill="#4f2ee8" style="fill:var(--color1,#4f2ee8)" d="M34.352 7.713A16.665 16.665 0 0 0 32 6.712v19.742a16.089 16.089 0 0 0-5.6-1.017c-3.04 0-6.048.886-8.8 2.593V8.174c-2.592-1.526-5.584-2.429-8.8-2.429-2.864 0-5.568.722-7.952 1.969C.32 7.977 0 8.551 0 9.158v19.824a1.6 1.6 0 0 0 1.6 1.625c.256 0 .512-.066.768-.197 1.936-1.034 4.112-1.69 6.432-1.69 3.312 0 6.368 1.346 8.8 3.282 2.432-1.936 5.488-3.282 8.8-3.282 2.32 0 4.496.656 6.432 1.707.256.131.512.197.768.197.832 0 1.6-.673 1.6-1.625V9.159c0-.607-.32-1.182-.848-1.444zM14.4 26.453c-1.824-.673-3.696-1.017-5.6-1.017s-3.776.345-5.6 1.017V10.19a13.941 13.941 0 0 1 5.6-1.165c1.92 0 3.824.41 5.6 1.182v16.246zM28.8 0l-8 8.205v15.59l8-7.385V0z"/></symbol></defs></svg>