<svg aria-hidden="true" style="position: absolute; width: 0; height: 0; overflow: hidden;" version="1.1" xmlns="http://www.w3.org/2000/svg" xmlns:xlink="http://www.w3.org/1999/xlink">
<defs>
<symbol id="icon-burger" viewBox="0 0 32 32">
<path stroke-linejoin="round" stroke-linecap="round" stroke-miterlimit="4" stroke-width="2.2857" d="M22.667 13.333h-18.667"></path>
<path stroke-linejoin="round" stroke-linecap="round" stroke-miterlimit="4" stroke-width="2.2857" d="M28 8h-24"></path>
<path stroke-linejoin="round" stroke-linecap="round" stroke-miterlimit="4" stroke-width="2.2857" d="M28 18.667h-24"></path>
<path stroke-linejoin="round" stroke-linecap="round" stroke-miterlimit="4" stroke-width="2.2857" d="M22.667 24h-18.667"></path>
</symbol>
<symbol id="icon-bookshelf" viewBox="0 0 178 32">
<path d="M22.176 8.533c0-4.731-3.497-7.406-9.545-7.406h-12.631v29.417h13.33c6.089 0 9.998-2.921 9.998-8.599 0-4.402-2.633-6.665-5.719-7.2v-0.082c2.427-0.823 4.567-2.51 4.567-6.13zM4.896 13.305v-8.023h7.858c2.921 0 4.526 1.44 4.526 4.032s-1.317 3.991-4.814 3.991h-7.57zM4.896 16.967h8.599c3.086 0 4.937 1.687 4.937 4.69 0 2.757-1.275 4.731-5.472 4.731h-8.064v-9.422z"></path>
<path d="M35.89 31.161c-6.583 0-10.574-4.567-10.574-11.109s3.991-11.109 10.574-11.109c6.583 0 10.574 4.567 10.574 11.109s-3.991 11.109-10.574 11.109zM35.89 27.623c4.114 0 6.254-3.25 6.254-7.57 0-4.361-2.139-7.57-6.254-7.57s-6.254 3.209-6.254 7.57c0 4.32 2.139 7.57 6.254 7.57z"></path>
<path d="M58.912 31.161c-6.583 0-10.574-4.567-10.574-11.109s3.991-11.109 10.574-11.109c6.583 0 10.574 4.567 10.574 11.109s-3.991 11.109-10.574 11.109zM58.912 27.623c4.114 0 6.254-3.25 6.254-7.57 0-4.361-2.139-7.57-6.254-7.57s-6.254 3.209-6.254 7.57c0 4.32 2.139 7.57 6.254 7.57z"></path>
<path d="M72.472 1.127v29.417h4.32v-7.611l2.921-2.757 6.624 10.368h5.184l-8.846-13.207 7.982-7.817h-5.307l-8.558 8.434v-16.827h-4.32z"></path>
<path d="M101.935 17.831c-3.045-0.699-5.39-0.864-5.39-3.003 0-1.481 1.399-2.469 3.991-2.469 3.374 0 4.197 1.687 4.485 3.333h4.197c-0.288-3.662-3.003-6.747-8.722-6.747-5.266 0-8.311 2.757-8.311 6.213 0 4.773 4.526 5.431 7.858 6.213 3.086 0.741 5.595 0.946 5.595 3.579 0 1.317-1.275 2.798-4.279 2.798-4.443 0-5.431-1.934-5.637-4.197h-4.197c0.206 4.443 3.127 7.611 9.915 7.611 5.102 0 8.558-2.51 8.558-6.542 0-5.019-4.197-5.883-8.064-6.789z"></path>
<path d="M124.123 8.944c-3.538 0-5.719 1.646-6.83 3.291h-0.082v-11.109h-4.32v29.417h4.32v-12.795c0-3.127 2.263-5.143 5.431-5.143 3.003 0 4.197 1.81 4.197 4.649v13.289h4.361v-14.523c0-4.814-3.086-7.077-7.077-7.077z"></path>
<path d="M144.448 27.623c-3.826 0-6.089-2.921-6.089-6.459h16.128c0-7.488-3.333-12.219-10.121-12.219-6.336 0-10.327 4.279-10.327 11.109 0 6.583 3.991 11.109 10.533 11.109 5.39 0 8.517-3.045 9.586-7.035h-4.32c-0.37 1.275-1.81 3.497-5.39 3.497zM144.366 12.359c3.497 0 5.801 2.345 5.801 5.595h-11.808c0-3.25 2.51-5.595 6.007-5.595z"></path>
<path d="M157.531 1.127v29.417h4.361v-29.417h-4.361z"></path>
<path d="M176.003 4.665v-3.538c-0.864-0.165-1.81-0.288-2.88-0.288-3.456 0-5.349 1.563-5.349 6.007v2.674h-3.003v3.538h3.003v17.486h4.361v-17.486h3.867v-3.538h-3.867v-2.304c0-2.386 1.070-2.674 3.867-2.551z"></path>
</symbol>
<symbol id="icon-dump" viewBox="0 0 32 32">
<path fill="#4f2ee8" style="fill: var(--color1, #4f2ee8)" d="M32 16c0 8.837-7.163 16-16 16s-16-7.163-16-16c0-8.837 7.163-16 16-16s16 7.163 16 16z"></path>
<path fill="none" stroke="#fff" style="stroke: var(--color2, #fff)" stroke-linejoin="round" stroke-linecap="round" stroke-miterlimit="4" stroke-width="1.6842" d="M13.684 9.053h4.632M9.053 11.368h13.895M21.404 11.368l-0.541 8.12c-0.081 1.218-0.122 1.827-0.385 2.289-0.232 0.407-0.581 0.733-1.002 0.938-0.478 0.232-1.089 0.232-2.31 0.232h-2.33c-1.221 0-1.832 0-2.31-0.232-0.421-0.204-0.771-0.531-1.002-0.938-0.263-0.462-0.304-1.071-0.385-2.289l-0.541-8.12M14.456 14.842v3.86M17.544 14.842v3.86"></path>
</symbol>
<symbol id="icon-lock" viewBox="0 0 32 32">
<path stroke-linejoin="round" stroke-linecap="round" stroke-miterlimit="4" stroke-width="2.2857" d="M22.667 14.667v-4c0-3.682-2.985-6.667-6.667-6.667s-6.667 2.985-6.667 6.667v4M10.4 28h11.2c2.24 0 3.36 0 4.216-0.436 0.753-0.383 1.365-0.995 1.748-1.748 0.436-0.856 0.436-1.976 0.436-4.216v-0.533c0-2.24 0-3.36-0.436-4.216-0.383-0.753-0.995-1.365-1.748-1.748-0.856-0.436-1.976-0.436-4.216-0.436h-11.2c-2.24 0-3.36 0-4.216 0.436-0.753 0.384-1.365 0.995-1.748 1.748-0.436 0.856-0.436 1.976-0.436 4.216v0.533c0 2.24 0 3.36 0.436 4.216 0.383 0.753 0.995 1.365 1.748 1.748 0.856 0.436 1.976 0.436 4.216 0.436z"></path>
</symbol>
<symbol id="icon-logo" viewBox="0 0 32 32">
<path fill="#f6f6f6" style="fill: var(--color3, #f6f6f6)" d="M0 0l16.343 16.171 15.657 15.829v-32h-32z"></path>
<path fill="#f6f6f6" style="fill: var(--color3, #f6f6f6)" d="M4.457 4.229l11.943 11.829 11.257 11.486h-23.2v-23.314z"></path>
<path fill="#4f2ee8" style="fill: var(--color1, #4f2ee8)" d="M27.733 27.618l-11.943-11.829-11.257-11.486h23.2v23.314z"></path>
<path fill="#4f2ee8" style="fill: var(--color1, #4f2ee8)" d="M9.257 9.029l13.6 13.6h-13.6v-13.6z"></path>
<path fill="#f6f6f6" style="fill: var(--color3, #f6f6f6)" d="M9.257 9.029l13.6 13.6v-13.6h-13.6z"></path>
</symbol>
<symbol id="icon-mail" viewBox="0 0 32 32">
<path stroke-linejoin="round" stroke-linecap="round" stroke-miterlimit="4" stroke-width="2.2857" d="M28.666 24l-8.857-8M12.19 16l-8.857 8M2.667 9.333l10.887 7.621c0.882 0.617 1.322 0.926 1.802 1.045 0.423 0.106 0.866 0.106 1.29 0 0.479-0.12 0.92-0.428 1.802-1.045l10.887-7.621M9.067 26.667h13.867c2.24 0 3.36 0 4.216-0.436 0.753-0.384 1.365-0.995 1.748-1.748 0.436-0.856 0.436-1.976 0.436-4.216v-8.533c0-2.24 0-3.36-0.436-4.216-0.383-0.753-0.995-1.365-1.748-1.748-0.856-0.436-1.976-0.436-4.216-0.436h-13.867c-2.24 0-3.36 0-4.216 0.436-0.753 0.383-1.365 0.995-1.748 1.748-0.436 0.856-0.436 1.976-0.436 4.216v8.533c0 2.24 0 3.36 0.436 4.216 0.384 0.753 0.995 1.365 1.748 1.748 0.856 0.436 1.976 0.436 4.216 0.436z"></path>
</symbol>
<symbol id="icon-user" viewBox="0 0 32 32">
<path fill="#f6f6f6" style="fill: var(--color3, #f6f6f6)" d="M32 16c0 8.837-7.163 16-16 16s-16-7.163-16-16c0-8.837 7.163-16 16-16s16 7.163 16 16z"></path>
<path fill="#4f2ee8" style="fill: var(--color1, #4f2ee8)" d="M10.523 22.847c0-1.453 0.577-2.846 1.604-3.873s2.421-1.604 3.873-1.604 2.846 0.577 3.873 1.604c1.027 1.027 1.604 2.421 1.604 3.873h-10.955zM16 16.685c-2.27 0-4.108-1.838-4.108-4.108s1.838-4.108 4.108-4.108c2.27 0 4.108 1.838 4.108 4.108s-1.838 4.108-4.108 4.108z"></path>
</symbol>
<symbol id="icon-x-close" viewBox="0 0 32 32">
<path stroke-linejoin="round" stroke-linecap="round" stroke-miterlimit="4" stroke-width="3.4286" d="M24 8l-16 16M8 8l16 16"></path>
</symbol>
<symbol id="icon-cart" viewBox="0 0 32 32">
<path d="M25.333 9.333h-4v-1.333c0-1.415-0.562-2.771-1.562-3.771s-2.357-1.562-3.771-1.562c-1.414 0-2.771 0.562-3.771 1.562s-1.562 2.357-1.562 3.771v1.333h-4c-0.354 0-0.693 0.14-0.943 0.391s-0.391 0.589-0.391 0.943v14.667c0 1.061 0.421 2.078 1.172 2.828s1.768 1.172 2.828 1.172h13.333c1.061 0 2.078-0.421 2.828-1.172s1.172-1.768 1.172-2.828v-14.667c0-0.354-0.14-0.693-0.391-0.943s-0.589-0.391-0.943-0.391zM13.333 8c0-0.707 0.281-1.386 0.781-1.886s1.178-0.781 1.886-0.781c0.707 0 1.385 0.281 1.886 0.781s0.781 1.178 0.781 1.886v1.333h-5.333v-1.333zM24 25.333c0 0.354-0.14 0.693-0.391 0.943s-0.589 0.391-0.943 0.391h-13.333c-0.354 0-0.693-0.14-0.943-0.391s-0.391-0.589-0.391-0.943v-13.333h2.667v1.333c0 0.354 0.14 0.693 0.391 0.943s0.589 0.391 0.943 0.391c0.354 0 0.693-0.14 0.943-0.391s0.391-0.589 0.391-0.943v-1.333h5.333v1.333c0 0.354 0.14 0.693 0.39 0.943s0.589 0.391 0.943 0.391 0.693-0.14 0.943-0.391c0.25-0.25 0.391-0.589 0.391-0.943v-1.333h2.667v13.333z"></path>
</symbol>
<symbol id="icon-caret-down" viewBox="0 0 28 32">
<path fill="#fff" style="fill: var(--color1, #fff)" d="M5.897 12h16.513l-7.423 8.391c-0.221 0.25-0.521 0.39-0.834 0.39s-0.613-0.14-0.834-0.39l-7.423-8.391z"></path>
</symbol>
<symbol id="icon-arrow-narrow-right" viewBox="0 0 32 32">
<path fill="none" stroke="#eac645" style="stroke: var(--color1, #eac645)" stroke-linejoin="round" stroke-linecap="round" stroke-miterlimit="4" stroke-width="3.2" d="M5.333 16h21.333M26.666 16l-8-8M26.666 16l-8 8"></path>
</symbol>
<symbol id="icon-circle" viewBox="0 0 24 24">
<path d="M12 2.016q-2.063 0-3.891 0.773t-3.188 2.133-2.133 3.188-0.773 3.891 0.773 3.891 2.133 3.188 3.188 2.133 3.891 0.773 3.891-0.773 3.188-2.133 2.133-3.188 0.773-3.891-0.773-3.891-2.133-3.188-3.188-2.133-3.891-0.773z"></path>
</symbol>
<symbol id="icon-trash" viewBox="0 0 32 32">
<path fill="none" stroke="#fff" style="stroke: var(--color1, #fff)" stroke-linejoin="round" stroke-linecap="round" stroke-miterlimit="4" stroke-width="2.6667" d="M12 4h8M4 8h24M25.333 8l-0.935 14.026c-0.14 2.104-0.21 3.156-0.665 3.954-0.4 0.702-1.004 1.267-1.731 1.62-0.826 0.4-1.881 0.4-3.99 0.4h-4.025c-2.109 0-3.163 0-3.99-0.4-0.727-0.353-1.331-0.917-1.731-1.62-0.455-0.798-0.525-1.85-0.665-3.954l-0.935-14.026M13.333 14v6.667M18.667 14v6.667"></path>
</symbol>
<symbol id="icon-amazon" viewBox="0 0 106 32">
<path d="M65.759 24.999c-6.154 4.536-15.073 6.956-22.753 6.956-10.768 0-20.462-3.983-27.796-10.607-0.576-0.521-0.060-1.231 0.631-0.825 7.915 4.605 17.701 7.375 27.809 7.375 6.818 0 14.317-1.411 21.213-4.338 1.042-0.443 1.913 0.682 0.894 1.438z"></path>
<path d="M68.318 22.072c-0.784-1.005-5.2-0.475-7.182-0.24-0.604 0.074-0.696-0.452-0.152-0.83 3.517-2.475 9.288-1.761 9.961-0.931 0.673 0.834-0.175 6.619-3.48 9.38-0.507 0.424-0.991 0.198-0.765-0.364 0.742-1.853 2.406-6.006 1.618-7.016z"></path>
<path d="M61.274 3.528v-2.406c0-0.364 0.277-0.608 0.608-0.608h10.773c0.346 0 0.622 0.249 0.622 0.608v2.060c-0.005 0.346-0.295 0.797-0.811 1.512l-5.582 7.97c2.074-0.051 4.264 0.258 6.145 1.318 0.424 0.24 0.539 0.59 0.572 0.936v2.568c0 0.35-0.387 0.761-0.793 0.549-3.314-1.738-7.716-1.927-11.381 0.018-0.373 0.203-0.765-0.203-0.765-0.553v-2.438c0-0.392 0.005-1.060 0.396-1.655l6.467-9.274h-5.628c-0.346 0-0.622-0.244-0.622-0.604z"></path>
<path d="M21.978 18.541h-3.277c-0.313-0.023-0.562-0.258-0.585-0.558v-16.82c0-0.337 0.281-0.604 0.631-0.604h3.056c0.318 0.014 0.572 0.258 0.595 0.562v2.199h0.060c0.797-2.125 2.296-3.116 4.315-3.116 2.051 0 3.333 0.991 4.255 3.116 0.793-2.125 2.595-3.116 4.527-3.116 1.374 0 2.876 0.567 3.794 1.839 1.037 1.415 0.825 3.471 0.825 5.273l-0.005 10.616c0 0.337-0.281 0.608-0.632 0.608h-3.273c-0.327-0.023-0.59-0.286-0.59-0.608v-8.915c0-0.71 0.065-2.48-0.092-3.153-0.244-1.129-0.977-1.447-1.927-1.447-0.793 0-1.623 0.53-1.959 1.378s-0.304 2.268-0.304 3.222v8.915c0 0.337-0.281 0.608-0.631 0.608h-3.273c-0.332-0.023-0.59-0.286-0.59-0.608l-0.005-8.915c0-1.876 0.309-4.637-2.019-4.637-2.355 0-2.263 2.692-2.263 4.637v8.915c0 0.337-0.281 0.608-0.631 0.608z"></path>
<path d="M82.552 0.205c4.863 0 7.495 4.176 7.495 9.486 0 5.13-2.909 9.201-7.495 9.201-4.775 0-7.375-4.176-7.375-9.38 0-5.236 2.632-9.307 7.375-9.307zM82.58 3.639c-2.415 0-2.568 3.291-2.568 5.342 0 2.056-0.032 6.444 2.54 6.444 2.54 0 2.66-3.54 2.66-5.697 0-1.42-0.060-3.116-0.489-4.462-0.369-1.171-1.102-1.627-2.143-1.627z"></path>
<path d="M96.353 18.541h-3.264c-0.327-0.023-0.59-0.286-0.59-0.608l-0.005-16.825c0.028-0.309 0.3-0.549 0.632-0.549h3.038c0.286 0.014 0.521 0.207 0.585 0.47v2.572h0.060c0.917-2.3 2.203-3.397 4.467-3.397 1.47 0 2.904 0.53 3.826 1.982 0.857 1.346 0.857 3.609 0.857 5.236v10.588c-0.037 0.295-0.309 0.53-0.632 0.53h-3.287c-0.3-0.023-0.549-0.244-0.581-0.53v-9.136c0-1.839 0.212-4.531-2.051-4.531-0.797 0-1.53 0.535-1.895 1.346-0.461 1.028-0.521 2.051-0.521 3.185v9.058c-0.005 0.337-0.29 0.608-0.641 0.608z"></path>
<path d="M52.687 10.507v-0.71c-2.369 0-4.872 0.507-4.872 3.3 0 1.415 0.733 2.374 1.991 2.374 0.922 0 1.747-0.567 2.268-1.489 0.645-1.134 0.613-2.199 0.613-3.476zM55.992 18.495c-0.217 0.194-0.53 0.207-0.774 0.078-1.088-0.903-1.281-1.323-1.881-2.185-1.798 1.835-3.070 2.383-5.402 2.383-2.757 0-4.905-1.701-4.905-5.107 0-2.66 1.443-4.471 3.494-5.356 1.779-0.784 4.264-0.922 6.163-1.139v-0.424c0-0.779 0.060-1.701-0.396-2.374-0.401-0.604-1.166-0.853-1.839-0.853-1.249 0-2.365 0.641-2.637 1.968-0.055 0.295-0.272 0.585-0.567 0.599l-3.181-0.341c-0.267-0.060-0.562-0.277-0.489-0.687 0.733-3.854 4.213-5.015 7.329-5.015 1.595 0 3.678 0.424 4.937 1.632 1.595 1.489 1.443 3.476 1.443 5.638v5.107c0 1.535 0.636 2.208 1.235 3.038 0.212 0.295 0.258 0.65-0.009 0.871-0.668 0.558-1.858 1.595-2.512 2.176l-0.009-0.009z"></path>
<path d="M9.721 10.507v-0.71c-2.369 0-4.872 0.507-4.872 3.3 0 1.415 0.733 2.374 1.991 2.374 0.922 0 1.747-0.567 2.268-1.489 0.645-1.134 0.613-2.199 0.613-3.476zM13.026 18.495c-0.217 0.194-0.53 0.207-0.774 0.078-1.088-0.903-1.281-1.323-1.881-2.185-1.798 1.835-3.070 2.383-5.402 2.383-2.756 0-4.905-1.701-4.905-5.107 0-2.66 1.443-4.471 3.494-5.356 1.779-0.784 4.264-0.922 6.163-1.139v-0.424c0-0.779 0.060-1.701-0.396-2.374-0.401-0.604-1.166-0.853-1.839-0.853-1.249 0-2.365 0.641-2.637 1.968-0.055 0.295-0.272 0.585-0.567 0.599l-3.181-0.341c-0.267-0.060-0.562-0.277-0.489-0.687 0.733-3.854 4.213-5.015 7.329-5.015 1.595 0 3.678 0.424 4.937 1.632 1.595 1.489 1.443 3.476 1.443 5.638v5.107c0 1.535 0.636 2.208 1.235 3.038 0.212 0.295 0.258 0.65-0.009 0.871-0.668 0.558-1.858 1.595-2.512 2.176l-0.009-0.009z"></path>
</symbol>
<symbol id="icon-bookshop1" viewBox="0 0 32 32">
<path d="M0 0.571h32v30.857h-32v-30.857z"></path>
</symbol>
<symbol id="icon-bookshop2" viewBox="0 0 32 32">
<path d="M0 0h32v32h-32v-32z"></path>
</symbol>
<symbol id="icon-bestseller" viewBox="0 0 35 32">
<path fill="#4f2ee8" style="fill: var(--color1, #4f2ee8)" d="M34.352 7.713c-0.752-0.394-1.536-0.722-2.352-1.001v19.742c-1.824-0.673-3.696-1.017-5.6-1.017-3.040 0-6.048 0.886-8.8 2.593v-19.856c-2.592-1.526-5.584-2.429-8.8-2.429-2.864 0-5.568 0.722-7.952 1.969-0.528 0.263-0.848 0.837-0.848 1.444v19.824c0 0.952 0.752 1.625 1.6 1.625 0.256 0 0.512-0.066 0.768-0.197 1.936-1.034 4.112-1.69 6.432-1.69 3.312 0 6.368 1.346 8.8 3.282 2.432-1.936 5.488-3.282 8.8-3.282 2.32 0 4.496 0.656 6.432 1.707 0.256 0.131 0.512 0.197 0.768 0.197 0.832 0 1.6-0.673 1.6-1.625v-19.84c0-0.607-0.32-1.182-0.848-1.444zM14.4 26.453c-1.824-0.673-3.696-1.017-5.6-1.017s-3.776 0.345-5.6 1.017v-16.263c1.776-0.771 3.648-1.165 5.6-1.165 1.92 0 3.824 0.41 5.6 1.182v16.246zM28.8 0l-8 8.205v15.59l8-7.385v-16.41z"></path>
</symbol>
</defs>
</svg>
