<svg width="24" height="24" viewBox="0 0 24 24" fill="#FFF" xmlns="http://www.w3.org/2000/svg">
<path d="M3.37519 14.7L11.7752 6.275C11.8752 6.175 11.9835 6.10433 12.1002 6.063C12.2169 6.021 12.3419 6 12.4752 6C12.6085 6 12.7335 6.021 12.8502 6.063C12.9669 6.10433 13.0752 6.175 13.1752 6.275L21.6002 14.7C21.8335 14.9333 21.9502 15.225 21.9502 15.575C21.9502 15.925 21.8252 16.225 21.5752 16.475C21.3252 16.725 21.0335 16.85 20.7002 16.85C20.3669 16.85 20.0752 16.725 19.8252 16.475L12.4752 9.125L5.12519 16.475C4.89186 16.7083 4.60453 16.825 4.26319 16.825C3.92119 16.825 3.62519 16.7 3.37519 16.45C3.12519 16.2 3.00019 15.9083 3.00019 15.575C3.00019 15.2417 3.12519 14.95 3.37519 14.7Z" fill="white"/>
</svg>
