<svg width="28" height="28" viewBox="0 0 28 28" fill="none" xmlns="http://www.w3.org/2000/svg">
<ellipse cx="14" cy="14" rx="14" ry="14" fill="#4F2EE8"/>
<path d="M12 8H16M8 10H20M18.6667 10L18.1991 17.0129C18.129 18.065 18.0939 18.5911 17.8667 18.99C17.6666 19.3412 17.3648 19.6235 17.0011 19.7998C16.588 20 16.0607 20 15.0062 20H12.9938C11.9393 20 11.412 20 10.9989 19.7998C10.6352 19.6235 10.3334 19.3412 10.1333 18.99C9.90607 18.5911 9.871 18.065 9.80086 17.0129L9.33333 10M12.6667 13V16.3333M15.3333 13V16.3333" stroke="white" stroke-linecap="round" stroke-linejoin="round"/>
</svg>
