<svg width="34" height="34" viewBox="0 0 34 34" fill="none" xmlns="http://www.w3.org/2000/svg">
<ellipse cx="17" cy="17" rx="17" ry="17" fill="#4F2EE8"/>
<path d="M14.75 10.25H19.25M10.25 12.5H23.75M22.25 12.5L21.724 20.3895C21.6451 21.5732 21.6057 22.165 21.35 22.6138C21.1249 23.0088 20.7854 23.3265 20.3762 23.5248C19.9115 23.75 19.3183 23.75 18.132 23.75H15.868C14.6817 23.75 14.0885 23.75 13.6238 23.5248C13.2146 23.3265 12.8751 23.0088 12.65 22.6138C12.3943 22.165 12.3549 21.5732 12.276 20.3895L11.75 12.5M15.5 15.875V19.625M18.5 15.875V19.625" stroke="white" stroke-width="1.5" stroke-linecap="round" stroke-linejoin="round"/>
</svg>
